<?xml version="1.0" standalone="no"?><!DOCTYPE svg PUBLIC "-//W3C//DTD SVG 1.1//EN" "http://www.w3.org/Graphics/SVG/1.1/DTD/svg11.dtd"><svg t="1628060298492" class="icon" viewBox="0 0 1126 1024" version="1.1" xmlns="http://www.w3.org/2000/svg" p-id="1249" width="35.1875" height="32" xmlns:xlink="http://www.w3.org/1999/xlink"><defs><style type="text/css"></style></defs><path d="M0 0m25.014388 0l1050.604303 0q25.014388 0 25.014388 25.014388l0 100.057553q0 25.014388-25.014388 25.014388l-1050.604303 0q-25.014388 0-25.014388-25.014388l0-100.057553q0-25.014388 25.014388-25.014388Z" fill="#5AC389" p-id="1250"></path><path d="M25.014388 225.129493m25.014388 0l250.143882 0q25.014388 0 25.014388 25.014389l0 300.172657q0 25.014388-25.014388 25.014389l-250.143882 0q-25.014388 0-25.014388-25.014389l0-300.172657q0-25.014388 25.014388-25.014389Z" fill="#55B97F" p-id="1251"></path><path d="M400.230211 225.129493m25.014388 0l250.143881 0q25.014388 0 25.014388 25.014389l0 300.172657q0 25.014388-25.014388 25.014389l-250.143881 0q-25.014388 0-25.014388-25.014389l0-300.172657q0-25.014388 25.014388-25.014389Z" fill="#55B97F" p-id="1252"></path><path d="M775.446033 225.129493m25.014388 0l250.143882 0q25.014388 0 25.014388 25.014389l0 450.258986q0 25.014388-25.014388 25.014389l-250.143882 0q-25.014388 0-25.014388-25.014389l0-450.258986q0-25.014388 25.014388-25.014389Z" fill="#55B97F" p-id="1253"></path><path d="M25.014388 650.374092m25.014388 0l250.143882 0q25.014388 0 25.014388 25.014388l0 300.172658q0 25.014388-25.014388 25.014388l-250.143882 0q-25.014388 0-25.014388-25.014388l0-300.172658q0-25.014388 25.014388-25.014388Z" fill="#55B97F" p-id="1254"></path><path d="M400.230211 650.374092m25.014388 0l250.143881 0q25.014388 0 25.014388 25.014388l0 300.172658q0 25.014388-25.014388 25.014388l-250.143881 0q-25.014388 0-25.014388-25.014388l0-300.172658q0-25.014388 25.014388-25.014388Z" fill="#55B97F" p-id="1255"></path><path d="M775.446033 800.460421m25.014388 0l250.143882 0q25.014388 0 25.014388 25.014388l0 150.086329q0 25.014388-25.014388 25.014388l-250.143882 0q-25.014388 0-25.014388-25.014388l0-150.086329q0-25.014388 25.014388-25.014388Z" fill="#5AC389" p-id="1256"></path></svg>